<?xml version="1.0" encoding="utf-8"?>
<!-- Generator: Adobe Illustrator 23.1.0, SVG Export Plug-In . SVG Version: 6.00 Build 0)  -->
<svg version="1.1" id="Layer_1" xmlns="http://www.w3.org/2000/svg" xmlns:xlink="http://www.w3.org/1999/xlink" x="0px" y="0px"
	 viewBox="0 0 739.69 88" style="enable-background:new 0 0 739.69 88;" xml:space="preserve">
<style type="text/css">
	.st0{fill:#FFFFFF;}
	.st1{fill:#57A1D8;}
</style>
<g>
	<path class="st0" d="M80.61,85.85H3.21V62.86l39.51-37.18H4.82V2.15h74.17V24.6L39.3,62.32h41.31V85.85z"/>
	<path class="st0" d="M136.82,66.81c2.87,0,5.86-0.75,8.98-2.24c3.11-1.5,6.04-4.46,8.8-8.89l21.19,9.16
		c-1.8,3.83-4.16,7.21-7.09,10.15c-2.94,2.94-6.2,5.36-9.79,7.27c-3.59,1.92-7.43,3.35-11.49,4.31c-4.07,0.96-8.2,1.44-12.39,1.44
		c-6.11,0-11.92-0.99-17.42-2.96c-5.51-1.98-10.33-4.85-14.46-8.62c-4.13-3.77-7.39-8.38-9.79-13.83c-2.4-5.45-3.59-11.7-3.59-18.77
		c0-6.22,1.11-12,3.32-17.33c2.21-5.33,5.3-9.97,9.25-13.92c3.95-3.95,8.71-7.03,14.28-9.25C122.19,1.11,128.32,0,135.03,0
		c7.3,0,13.74,1.23,19.31,3.68c5.57,2.46,10.24,5.81,14.01,10.06c3.77,4.25,6.65,9.28,8.62,15.09c1.98,5.81,2.96,12.12,2.96,18.95
		v3.77h-59.09c0.36,4.19,2,7.78,4.94,10.78C128.71,65.31,132.39,66.81,136.82,66.81z M148.68,35.2c-0.96-5.39-2.69-9.07-5.21-11.05
		c-2.51-1.98-5.33-2.96-8.44-2.96c-3.35,0-6.35,1.17-8.98,3.5c-2.63,2.33-4.31,5.84-5.03,10.51H148.68z"/>
	<path class="st0" d="M251.76,30.17c-2.4-0.72-4.67-1.29-6.82-1.71c-2.16-0.42-4.07-0.63-5.75-0.63c-2.63,0-5.03,0.54-7.18,1.62
		c-2.04,1.08-3.59,2.46-4.67,4.13c-1.08,1.68-1.8,3.47-2.16,5.39c-0.36,1.92-0.54,4.19-0.54,6.82v40.05h-31.07V2.15h28.91l0.72,9.88
		h0.18c3.83-4.55,7.72-7.69,11.67-9.43c3.95-1.73,7.66-2.6,11.13-2.6c2.27,0,4.34,0.24,6.2,0.72c1.85,0.48,3.56,1.02,5.12,1.62
		L251.76,30.17z"/>
	<path class="st0" d="M358.09,44c0,6.58-1.2,12.57-3.59,17.96c-2.4,5.39-5.69,10.03-9.88,13.92c-4.2,3.89-9.19,6.89-15,8.98
		c-5.81,2.09-12.18,3.14-19.13,3.14c-6.89,0-13.21-1.03-18.98-3.09l12.96-20.76c1.76,0.82,3.77,1.23,6.02,1.23
		c4.91,0,8.65-1.95,11.22-5.84c2.57-3.89,3.86-9.07,3.86-15.53c0-4.23-0.55-7.91-1.65-11.03l15.54-24.9
		c1.83,1.22,3.55,2.58,5.15,4.06c4.19,3.89,7.48,8.53,9.88,13.92C356.89,31.43,358.09,37.42,358.09,44z"/>
	<path class="st1" d="M328.09,2.62l-12.92,20.71c-1.42-0.47-2.98-0.7-4.68-0.7c-4.91,0-8.65,1.95-11.22,5.84
		c-2.58,3.89-3.86,9.07-3.86,15.53c0,3.44,0.37,6.52,1.1,9.23l-16.17,25.91c-1.42-1.01-2.77-2.1-4.06-3.27
		c-4.25-3.89-7.54-8.53-9.88-13.92c-2.33-5.39-3.5-11.38-3.5-17.96s1.17-12.57,3.5-17.96c2.33-5.39,5.62-10.03,9.88-13.92
		c4.25-3.89,9.28-6.89,15.09-8.98C297.17,1.05,303.55,0,310.49,0C316.83,0,322.7,0.87,328.09,2.62z"/>
	<path class="st0" d="M423.82,35.2c0-2.16-0.21-3.8-0.63-4.94c-0.42-1.14-0.93-2.18-1.53-3.14c-2.04-2.51-4.91-3.77-8.62-3.77
		c-2.04,0-3.86,0.45-5.48,1.35c-1.62,0.9-2.9,2.07-3.86,3.5c-0.6,0.84-1.02,1.86-1.26,3.05c-0.24,1.2-0.36,2.81-0.36,4.85v49.75
		h-31.07V2.15h28.91l0.72,7.72h0.18c2.99-3.11,6.79-5.54,11.4-7.27c4.61-1.73,9.43-2.6,14.46-2.6c3.71,0,7.33,0.54,10.87,1.62
		c3.53,1.08,6.61,2.81,9.25,5.21c2.51,2.28,4.49,5.15,5.93,8.62c1.44,3.47,2.16,8.08,2.16,13.83v56.57h-31.07V35.2z"/>
	<path class="st0" d="M543.24,60.52c0,2.99-0.75,6.11-2.24,9.34c-1.5,3.23-3.83,6.2-7,8.89c-3.17,2.69-7.21,4.91-12.12,6.65
		c-4.91,1.73-10.78,2.6-17.6,2.6c-4.55,0-8.77-0.42-12.66-1.26c-3.89-0.84-7.45-1.89-10.69-3.14c-3.23-1.26-6.05-2.63-8.44-4.13
		c-2.4-1.5-4.25-2.84-5.57-4.04l12.57-17.78c1.68,1.44,3.59,2.78,5.75,4.04c2.16,1.26,4.34,2.4,6.56,3.41
		c2.21,1.02,4.4,1.8,6.56,2.33c2.16,0.54,4.13,0.81,5.93,0.81c2.63,0,4.67-0.54,6.11-1.62c1.44-1.08,2.16-2.27,2.16-3.59
		c0-2.27-1.56-4.01-4.67-5.21c-1.32-0.6-2.85-1.14-4.58-1.62c-1.74-0.48-4.46-1.26-8.17-2.33c-2.4-0.72-4.49-1.44-6.29-2.16
		s-3.47-1.44-5.03-2.16c-5.03-2.39-8.74-5.18-11.13-8.35c-2.4-3.17-3.59-7.57-3.59-13.2c0-3.35,0.78-6.7,2.33-10.06
		c1.55-3.35,3.89-6.38,7-9.07c3.11-2.69,6.97-4.85,11.58-6.47C494.6,0.81,499.96,0,506.07,0c4.79,0,9.16,0.51,13.11,1.53
		c3.95,1.02,7.36,2.19,10.24,3.5c2.87,1.32,5.24,2.63,7.09,3.95c1.85,1.32,3.14,2.33,3.86,3.05l-12.21,16.7
		c-3.83-3.11-7.57-5.45-11.22-7c-3.65-1.55-7.39-2.33-11.22-2.33c-2.4,0-4.28,0.48-5.66,1.44c-1.38,0.96-2.07,2.1-2.07,3.41
		c0,1.56,0.75,2.81,2.24,3.77c1.5,0.96,3.14,1.74,4.94,2.33c0.84,0.36,1.73,0.69,2.69,0.99c0.96,0.3,2.03,0.63,3.23,0.99
		c1.2,0.36,2.6,0.78,4.22,1.26c1.62,0.48,3.56,1.08,5.84,1.8c2.87,0.96,5.99,2.31,9.34,4.04c3.35,1.74,6.11,3.98,8.26,6.73
		c1.44,1.8,2.54,3.83,3.32,6.11C542.85,54.54,543.24,57.29,543.24,60.52z"/>
	<path class="st0" d="M600.53,66.81c2.87,0,5.86-0.75,8.98-2.24c3.11-1.5,6.04-4.46,8.8-8.89l21.19,9.16
		c-1.8,3.83-4.16,7.21-7.09,10.15c-2.94,2.94-6.2,5.36-9.79,7.27c-3.59,1.92-7.43,3.35-11.49,4.31c-4.07,0.96-8.2,1.44-12.39,1.44
		c-6.11,0-11.91-0.99-17.42-2.96c-5.51-1.98-10.33-4.85-14.46-8.62c-4.13-3.77-7.39-8.38-9.79-13.83c-2.4-5.45-3.59-11.7-3.59-18.77
		c0-6.22,1.11-12,3.32-17.33c2.21-5.33,5.3-9.97,9.25-13.92s8.71-7.03,14.28-9.25C585.9,1.11,592.03,0,598.74,0
		c7.3,0,13.74,1.23,19.31,3.68c5.57,2.46,10.24,5.81,14.01,10.06c3.77,4.25,6.65,9.28,8.62,15.09c1.98,5.81,2.96,12.12,2.96,18.95
		v3.77h-59.09c0.36,4.19,2,7.78,4.94,10.78C592.42,65.31,596.1,66.81,600.53,66.81z M612.39,35.2c-0.96-5.39-2.69-9.07-5.21-11.05
		s-5.33-2.96-8.44-2.96c-3.35,0-6.35,1.17-8.98,3.5c-2.64,2.33-4.31,5.84-5.03,10.51H612.39z"/>
	<path class="st0" d="M653.33,44c0-7.3,1.29-13.68,3.86-19.13c2.57-5.45,5.95-10.03,10.15-13.74c4.19-3.71,8.92-6.49,14.19-8.35
		C686.8,0.93,692.19,0,697.69,0c7.9,0,15.29,1.86,22.18,5.57c6.88,3.71,12.42,9.34,16.61,16.88l-21.55,11.67
		c-2.4-3.71-4.73-6.56-7-8.53c-2.28-1.98-5.15-2.96-8.62-2.96c-3.95,0-7.34,1.65-10.15,4.94c-2.81,3.29-4.22,8.77-4.22,16.43
		c0,7.66,1.41,13.14,4.22,16.43c2.81,3.29,6.2,4.94,10.15,4.94c3.47,0,6.34-0.99,8.62-2.96c2.27-1.98,4.61-4.82,7-8.53l21.55,11.67
		c-4.19,7.54-9.73,13.17-16.61,16.88C712.99,86.14,705.6,88,697.69,88c-5.51,0-10.9-0.93-16.16-2.78c-5.27-1.85-10-4.61-14.19-8.26
		c-4.19-3.65-7.57-8.23-10.15-13.74C654.62,57.71,653.33,51.3,653.33,44z"/>
</g>
</svg>
