<svg width="16" height="15" viewBox="0 0 16 15" fill="none" xmlns="http://www.w3.org/2000/svg">
<path d="M4.3628 0.122542C4.32796 0.0837007 4.28656 0.0528819 4.24098 0.0318533C4.1954 0.0108247 4.14653 0 4.09718 0C4.04782 0 3.99895 0.0108247 3.95337 0.0318533C3.90779 0.0528819 3.86639 0.0837007 3.83155 0.122542L1.84155 2.32066L1.13217 1.55265C1.09733 1.51381 1.05594 1.48299 1.01035 1.46196C0.964772 1.44094 0.915902 1.43011 0.866547 1.43011C0.817191 1.43011 0.768321 1.44094 0.72274 1.46196C0.677158 1.48299 0.63576 1.51381 0.600921 1.55265L0.110296 2.09845C0.0753358 2.13716 0.0475969 2.18315 0.0286699 2.23379C0.00974287 2.28444 0 2.33873 0 2.39357C0 2.4484 0.00974287 2.5027 0.0286699 2.55334C0.0475969 2.60399 0.0753358 2.64998 0.110296 2.68869L1.59748 4.33441C1.67172 4.41281 1.77022 4.45652 1.87264 4.45652C1.97506 4.45652 2.07357 4.41281 2.1478 4.33441L2.63499 3.79208L4.89124 1.28566C4.96154 1.20749 5.00126 1.10168 5.00179 0.991181C5.00231 0.880682 4.9636 0.774409 4.89405 0.69542L4.3628 0.122542ZM4.3628 5.6496C4.32796 5.61075 4.28656 5.57994 4.24098 5.55891C4.1954 5.53788 4.14653 5.52705 4.09718 5.52705C4.04782 5.52705 3.99895 5.53788 3.95337 5.55891C3.90779 5.57994 3.86639 5.61075 3.83155 5.6496L1.84155 7.86195L1.13217 7.09464C1.09733 7.05579 1.05594 7.02498 1.01035 7.00395C0.964772 6.98292 0.915902 6.97209 0.866547 6.97209C0.817191 6.97209 0.768321 6.98292 0.72274 7.00395C0.677158 7.02498 0.63576 7.05579 0.600921 7.09464L0.110296 7.63939C0.0753358 7.6781 0.0475969 7.72409 0.0286699 7.77473C0.00974287 7.82538 0 7.87967 0 7.93451C0 7.98935 0.00974287 8.04364 0.0286699 8.09429C0.0475969 8.14493 0.0753358 8.19092 0.110296 8.22963L1.59373 9.87882C1.66792 9.9572 1.76637 10.0009 1.86874 10.0009C1.9711 10.0009 2.06956 9.9572 2.14374 9.87882L2.63436 9.33407L4.89061 6.8266C4.96064 6.74898 5.00023 6.64376 5.00076 6.53386C5.00129 6.42396 4.96271 6.31828 4.89343 6.23983L4.3628 5.6496ZM1.99999 11.6669C1.17217 11.6669 0.481546 12.4134 0.481546 13.3334C0.481546 14.2535 1.1728 15 1.99999 15C2.39781 15 2.77934 14.8244 3.06065 14.5119C3.34195 14.1993 3.49999 13.7754 3.49999 13.3334C3.49999 12.8914 3.34195 12.4676 3.06065 12.155C2.77934 11.8425 2.39781 11.6669 1.99999 11.6669ZM15.5 12.2224H6.49999C6.36738 12.2224 6.2402 12.2809 6.14644 12.3851C6.05267 12.4893 5.99999 12.6306 5.99999 12.7779V13.889C5.99999 14.0363 6.05267 14.1776 6.14644 14.2818C6.2402 14.386 6.36738 14.4445 6.49999 14.4445H15.5C15.6326 14.4445 15.7598 14.386 15.8536 14.2818C15.9473 14.1776 16 14.0363 16 13.889V12.7779C16 12.6306 15.9473 12.4893 15.8536 12.3851C15.7598 12.2809 15.6326 12.2224 15.5 12.2224ZM15.5 1.11206H6.49999C6.36738 1.11206 6.2402 1.17059 6.14644 1.27477C6.05267 1.37895 5.99999 1.52024 5.99999 1.66758V2.77861C5.99999 2.92594 6.05267 3.06724 6.14644 3.17142C6.2402 3.2756 6.36738 3.33413 6.49999 3.33413H15.5C15.6326 3.33413 15.7598 3.2756 15.8536 3.17142C15.9473 3.06724 16 2.92594 16 2.77861V1.66758C16 1.52024 15.9473 1.37895 15.8536 1.27477C15.7598 1.17059 15.6326 1.11206 15.5 1.11206ZM15.5 6.66723H6.49999C6.36738 6.66723 6.2402 6.72576 6.14644 6.82994C6.05267 6.93412 5.99999 7.07542 5.99999 7.22275V8.33379C5.99999 8.48112 6.05267 8.62242 6.14644 8.7266C6.2402 8.83078 6.36738 8.88931 6.49999 8.88931H15.5C15.6326 8.88931 15.7598 8.83078 15.8536 8.7266C15.9473 8.62242 16 8.48112 16 8.33379V7.22275C16 7.07542 15.9473 6.93412 15.8536 6.82994C15.7598 6.72576 15.6326 6.66723 15.5 6.66723Z" fill="#8FA8BA"/>
</svg>
