<svg width="18" height="18" viewBox="0 0 18 18" fill="none" xmlns="http://www.w3.org/2000/svg">
<path d="M6.0548 7.97456C5.54145 7.87261 5.06325 8.28746 5.06325 8.81131V10.5832C5.06325 10.9419 5.3129 11.2301 5.65045 11.3567C6.29038 11.5958 6.751 12.2146 6.751 12.9388C6.751 13.8705 5.99503 14.6264 5.06325 14.6264C4.13147 14.6264 3.3755 13.8705 3.3755 12.9388V4.21975C3.3755 3.75215 2.99927 3.37597 2.53162 3.37597H0.843875C0.376228 3.37597 0 3.75215 0 4.21975V12.9388C0 16.0854 2.88676 18.571 6.15325 17.8854C8.06604 17.4847 9.60963 15.9377 10.0105 14.0287C10.6223 11.1141 8.70949 8.50192 6.0548 7.97456ZM7.34874 0.000852088C7.02526 -0.0167266 6.751 0.239923 6.751 0.563371V1.67435C6.751 1.97319 6.98306 2.21929 7.27842 2.23335C11.8283 2.47945 15.4851 6.17098 15.7488 10.7239C15.7664 11.0192 16.0125 11.2512 16.3079 11.2512H17.4366C17.76 11.2512 18.0167 10.977 17.9991 10.6536C17.7003 4.91586 13.0871 0.303206 7.34874 0.000852088ZM7.35929 3.37597C7.03229 3.35136 6.751 3.61152 6.751 3.942V5.07056C6.751 5.36588 6.97955 5.60847 7.27139 5.62956C9.97179 5.85105 12.1237 8.0273 12.3663 10.7344C12.3944 11.0262 12.6335 11.2512 12.9254 11.2512H14.0575C14.3846 11.2512 14.6483 10.97 14.6236 10.643C14.3283 6.77218 11.2306 3.67481 7.35929 3.37597Z" fill="#8FA8BA"/>
</svg>
