<svg width="18" height="18" viewBox="0 0 18 18" fill="none" xmlns="http://www.w3.org/2000/svg">
<path d="M15.2003 3.7224C12.7962 1.9152 9.60091 1.50385 6.94655 2.04888C3.97687 -1.20997 0.649061 0.288977 0 0.719887C0 0.719887 2.28374 2.92777 1.91281 4.86154C-0.790936 7.99737 0.494374 11.4887 1.91281 13.1374C2.28374 15.0711 0 17.279 0 17.279C0.642811 17.7113 3.96155 19.2057 6.94655 15.9635C9.59498 16.505 12.7903 16.0972 15.2003 14.2868C18.9271 11.5798 18.9393 6.44332 15.2003 3.72204V3.7224ZM9.1931 14.2694C8.26369 14.2724 7.33796 14.1365 6.43967 13.8651L5.82186 14.5439C5.47869 14.9225 5.09444 15.2498 4.67843 15.5177C4.17369 15.8068 3.62538 15.9845 3.06249 16.0414C3.09374 15.9781 3.12124 15.9148 3.14906 15.8551C3.76718 14.5515 3.93385 13.3819 3.64905 12.3463C2.63249 11.4358 2.02406 10.2721 2.02406 8.99963C2.02406 6.08423 5.23467 3.7224 9.1931 3.7224C13.1515 3.7224 16.3622 6.08423 16.3622 8.99963C16.3622 11.915 13.1515 14.2694 9.1931 14.2694ZM5.75374 10.2547C5.46992 10.2592 5.19609 10.1356 4.99225 9.9109C4.78841 9.68618 4.67117 9.37868 4.66624 9.0558C4.64436 7.44202 6.78592 7.40682 6.80748 9.01705V9.03518C6.8088 9.19405 6.78258 9.35165 6.73033 9.49898C6.67807 9.64631 6.6008 9.78047 6.50293 9.8938C6.40506 10.0071 6.28852 10.0974 6.15997 10.1594C6.03141 10.2215 5.89337 10.2541 5.75374 10.2554V10.2547ZM8.05904 9.0558C8.03436 7.44202 10.1759 7.40327 10.2006 9.01349V9.03518C10.2128 10.6379 8.08373 10.6554 8.05904 9.0558ZM12.5397 10.2547C12.2558 10.2592 11.982 10.1356 11.7781 9.91092C11.5742 9.68621 11.4569 9.37872 11.4518 9.0558C11.4303 7.44202 13.5718 7.40682 13.5934 9.01705V9.03518C13.5952 9.19419 13.5693 9.35202 13.5172 9.49958C13.4651 9.64714 13.3878 9.78151 13.2899 9.89494C13.1919 10.0084 13.0752 10.0986 12.9464 10.1605C12.8177 10.2223 12.6794 10.2546 12.5397 10.2554V10.2547Z" fill="#8FA8BA"/>
</svg>
